<?xml version="1.0" encoding="iso-8859-1"?>
<!-- Generator: Adobe Illustrator 19.1.1, SVG Export Plug-In . SVG Version: 6.00 Build 0)  -->
<svg version="1.1" id="Layer_1" xmlns="http://www.w3.org/2000/svg" xmlns:xlink="http://www.w3.org/1999/xlink" x="0px" y="0px"
	 viewBox="0 0 40 40" style="enable-background:new 0 0 40 40;" xml:space="preserve">
<g>
	<polygon style="fill:#F78F8F;" points="17.316,19.5 8.79,1.5 14.685,1.5 23.278,19.5 	"/>
	<g>
		<path style="fill:#C74343;" d="M14.369,2l8.117,17h-4.853L9.58,2H14.369 M15,1H8l9,19h7.071L15,1L15,1z"/>
	</g>
</g>
<g>
	<polygon style="fill:#F78F8F;" points="16.722,19.5 25.315,1.5 31.21,1.5 22.684,19.5 	"/>
	<g>
		<path style="fill:#C74343;" d="M30.42,2l-8.053,17h-4.853l8.117-17H30.42 M32,1h-7l-9.071,19H23L32,1L32,1z"/>
	</g>
</g>
<g>
	<path style="fill:#E1EBF2;" d="M20,38.5c-5.79,0-10.5-4.71-10.5-10.5S14.21,17.5,20,17.5S30.5,22.21,30.5,28S25.79,38.5,20,38.5z"
		/>
	<g>
		<path style="fill:#A3B7CC;" d="M20,18c5.514,0,10,4.486,10,10s-4.486,10-10,10s-10-4.486-10-10S14.486,18,20,18 M20,17
			c-6.075,0-11,4.925-11,11s4.925,11,11,11s11-4.925,11-11S26.075,17,20,17L20,17z"/>
	</g>
</g>
<rect x="17" y="23" style="fill:#A3B7CC;" width="2" height="11"/>
<rect x="21" y="23" style="fill:#A3B7CC;" width="2" height="11"/>
<rect x="15" y="23" style="fill:#A3B7CC;" width="10" height="1"/>
<rect x="15" y="33" style="fill:#A3B7CC;" width="10" height="1"/>
</svg>
